<svg width="30" height="30" viewBox="0 0 30 30" fill="none" xmlns="http://www.w3.org/2000/svg">
<path d="M27.5 11.2499V18.7499C27.5 21.8749 26.875 24.0624 25.475 25.4749L17.5 17.4999L27.1625 7.8374C27.3875 8.8249 27.5 9.9499 27.5 11.2499Z" stroke="#08304A" stroke-opacity="0.5" stroke-width="2.5" stroke-linecap="round" stroke-linejoin="round"/>
<path d="M27.1625 7.83751L7.83749 27.1625C4.07499 26.3 2.5 23.7 2.5 18.75V11.25C2.5 5 5 2.5 11.25 2.5H18.75C23.7 2.5 26.3 4.07501 27.1625 7.83751Z" stroke="#8397A4" stroke-width="2.5" stroke-linecap="round" stroke-linejoin="round"/>
<path d="M25.475 25.475C24.0625 26.875 21.875 27.5 18.75 27.5H11.25C9.94998 27.5 8.82496 27.3875 7.83746 27.1625L17.5 17.5L25.475 25.475Z" stroke="#8397A4" stroke-width="2.5" stroke-linecap="round" stroke-linejoin="round"/>
<path d="M7.79996 9.9749C8.64996 6.3124 14.15 6.3124 15 9.9749C15.4875 12.1249 14.1375 13.9499 12.95 15.0749C12.0875 15.8999 10.725 15.8999 9.84998 15.0749C8.66248 13.9499 7.29996 12.1249 7.79996 9.9749Z" stroke="#08304A" stroke-opacity="0.5" stroke-width="2.5"/>
<path d="M11.3683 10.875H11.3795" stroke="#08304A" stroke-opacity="0.5" stroke-width="2.5" stroke-linecap="round" stroke-linejoin="round"/>
</svg>
